<svg transform="scale(1)" xmlns="http://www.w3.org/2000/svg" xmlns:xlink="http://www.w3.org/1999/xlink" viewBox="0 0 100 100" id="Hfy0EnRvuK" class="pbimage_pbimage__wrapper__image__0LEis false"><title>Maket Analysis</title><defs><style> .cls-1{fill:none;} .cls-2{fill:#13183f;} .cls-3{fill:#ffd44d;} .cls-13, .cls-4{opacity:0.15;} .cls-13, .cls-5{fill:#f0457d;} .cls-6{fill:#ffbeb3;} .cls-7{fill:#0099f5;} .cls-8{clip-path:url(#clip-path-Hfy0EnRvuK);} .cls-9{opacity:0.09;isolation:isolate;} .cls-10{fill:#f2f2f2;} .cls-11{fill:#9e6341;} .cls-12{opacity:0.1;}
 .cls-13, .cls-5{fill:#F0457D;}
 .cls-11{fill:#9E6341;}
 .cls-10{fill:#F2F2F2;}
 .cls-7{fill:#0099F5;}
 .cls-6{fill:#FFBEB3;}
 .cls-3{fill:#FFD44D;}
 .cls-2{fill:#13183F;}</style><clipPath id="clip-path-Hfy0EnRvuK"><circle class="cls-1" cx="36.59" cy="18.72" r="12.8"></circle></clipPath></defs><g id="_0210_Maket_Analysis" data-name="0210_Maket_Analysis"><path class="cls-2" d="M15.79,45.38a1.13,1.13,0,0,1-.71-.26,1.12,1.12,0,0,1-.16-1.58L35.72,18a1.12,1.12,0,0,1,.87-.41h0a1.12,1.12,0,0,1,.87.41l20,24.51L77.93,19.59a1.13,1.13,0,1,1,1.68,1.5L58.27,45a1.1,1.1,0,0,1-.86.38,1.13,1.13,0,0,1-.85-.42l-20-24.46L16.66,45A1.11,1.11,0,0,1,15.79,45.38Z" fill="#13183F"></path><path class="cls-3" d="M43.89,94.08H29.29a.61.61,0,0,1-.62-.61V52a.61.61,0,0,1,.62-.61h14.6a.61.61,0,0,1,.62.61V93.47A.63.63,0,0,1,43.89,94.08Z" fill="#FFD44D"></path><g class="cls-4"><path class="cls-5" d="M43.89,94.08h-3V51.35h3a.61.61,0,0,1,.62.61V93.47A.63.63,0,0,1,43.89,94.08Z"></path></g><path class="cls-6" d="M85.58,94.08H71a.61.61,0,0,1-.61-.61V52a.61.61,0,0,1,.61-.61H85.58a.6.6,0,0,1,.61.61V93.47A.63.63,0,0,1,85.58,94.08Z" fill="#FFBEB3"></path><g class="cls-4"><path class="cls-5" d="M85.58,94.08h-3V51.35h3a.6.6,0,0,1,.61.61V93.47A.63.63,0,0,1,85.58,94.08Z"></path></g><path class="cls-7" d="M23.09,94.08H8.49a.61.61,0,0,1-.62-.61V61.58A.61.61,0,0,1,8.49,61h14.6a.6.6,0,0,1,.61.62V93.45A.63.63,0,0,1,23.09,94.08Z" fill="#0099F5"></path><g class="cls-4"><path class="cls-2" d="M23.09,94.08h-3V61h3a.6.6,0,0,1,.61.62V93.45A.63.63,0,0,1,23.09,94.08Z"></path></g><path class="cls-5" d="M64.74,94.08H50.13a.6.6,0,0,1-.61-.61V61.58a.6.6,0,0,1,.61-.62H64.74a.61.61,0,0,1,.61.62V93.45A.64.64,0,0,1,64.74,94.08Z"></path><g class="cls-4"><path class="cls-2" d="M64.74,94.08h-3V61h3a.61.61,0,0,1,.61.62V93.45A.64.64,0,0,1,64.74,94.08Z"></path></g><g class="cls-8"><circle class="cls-3" cx="36.59" cy="18.72" r="12.8"></circle></g><g class="cls-8"><path class="cls-7" d="M46.8,30.47v1H26.42c-.51-4.81,4-7.73,8.37-7.73,2.27,0,5.44-.23,7.53.77C44.71,25.56,46.82,27.77,46.8,30.47Z"></path><g class="cls-9"><path class="cls-2" d="M46.8,30.47c0-2.7-2.09-4.91-4.48-5.9-2.09-1-5.26-.75-7.53-.77a9.94,9.94,0,0,0-4,.82,6.77,6.77,0,0,1,1-.05c2.28,0,5.45-.22,7.53.78,2.4,1,4.5,3.19,4.48,5.89v.29h3Z"></path></g><g class="cls-9"><path class="cls-2" d="M36.41,27.25l-2,1.23A.27.27,0,0,1,34,28.4l-2.18-3.76a.25.25,0,0,1,.1-.35l2-1.07a.25.25,0,0,1,.33.09l2.21,3.6A.31.31,0,0,1,36.41,27.25Z"></path></g><g class="cls-9"><path class="cls-2" d="M36.82,27.25l2,1.23a.27.27,0,0,0,.35-.08l2.19-3.76a.27.27,0,0,0-.11-.35l-2-1.07a.26.26,0,0,0-.33.09l-2.21,3.6A.3.3,0,0,0,36.82,27.25Z"></path></g><path class="cls-2" d="M38.49,27l-1.88-.7h0l-1.88.7L36,29.3l-.49,2.23H37.7l-.5-2.23Z"></path><path class="cls-6" d="M36.61,26.64a2.24,2.24,0,0,1-2.25-2.25v-6a2.25,2.25,0,0,1,4.5,0v6A2.25,2.25,0,0,1,36.61,26.64Z"></path><g class="cls-4"><path class="cls-5" d="M38.76,25.09a2.26,2.26,0,0,1-4.28,0A2.79,2.79,0,0,0,38.76,25.09Z"></path></g><path class="cls-7" d="M36.41,26.76l-1.86,1.13a.24.24,0,0,1-.31-.08l-2-3.46a.23.23,0,0,1,.09-.31l1.86-1a.2.2,0,0,1,.28.08l2,3.3A.21.21,0,0,1,36.41,26.76Z"></path><path class="cls-7" d="M36.8,26.76l1.86,1.13a.23.23,0,0,0,.3-.08l2-3.46a.24.24,0,0,0-.08-.31l-1.87-1a.2.2,0,0,0-.28.08l-2,3.3A.24.24,0,0,0,36.8,26.76Z"></path><path class="cls-6" d="M32.13,16.21a1.1,1.1,0,0,0-1.31-.88c-.69.14-.69.8-.59,1.33a10.79,10.79,0,0,0,.55,1.78c.21.31.49.88,1,.71.33-.1.51-.69.6-1.1A10.13,10.13,0,0,0,32.13,16.21Z"></path><path class="cls-6" d="M41,16.19a1.1,1.1,0,0,1,1.31-.88c.69.14.75.82.65,1.35,0,0-.37,1.37-.55,1.78s-.53.94-1,.71c-.31-.12-.54-.71-.6-1.12A10.13,10.13,0,0,1,41,16.19Z"></path><path class="cls-6" d="M41.66,12.2c0-2.31-1.43-4.64-5.23-4.64s-5.18,2.53-5.18,4.84c0,.13,0,6.43.72,7.86a5.77,5.77,0,0,0,4.58,2.92,5.29,5.29,0,0,0,4.6-2.92C42,18.6,41.66,12.2,41.66,12.2Z"></path><g class="cls-4"><path class="cls-5" d="M32.72,12.71l.11.06c.1.1-.41,1.27-.27,1.27.76.16,1.66-1.47,2.39-1.25,1.29.41,3.73,3.66,6.12,3.6.63-.61.61-4.21.61-4.21,0-2.31-1.43-4.64-5.23-4.64-3.15,0-4.63,1.73-5.05,3.66A2.37,2.37,0,0,1,32.72,12.71Z"></path></g><path class="cls-10" d="M41,20.59s0,0,0,0a.42.42,0,0,1-.12.08Z"></path><g class="cls-4"><path class="cls-5" d="M37.43,22.71a5.77,5.77,0,0,1-4.58-2.92c-.74-1.45-.72-7.73-.72-7.86a5,5,0,0,1,.94-3,3,3,0,0,1,.25-.55,4.67,4.67,0,0,0-2,4c0,.13,0,6.43.72,7.86a5.79,5.79,0,0,0,4.58,2.92,4.89,4.89,0,0,0,2.8-.9A5.17,5.17,0,0,1,37.43,22.71Z"></path></g><path class="cls-11" d="M42.52,11.65c-.47-2.56-2.55-4.4-6-4.38S31,9.38,30.5,11.73a19.89,19.89,0,0,0-.27,4.07c.57-.47.82-.53,1.08-.43.19,2.09.64,2.05.64,2.05s0-1.42.14-2.36,1.62-1.1,2.39-2.72c2.42-.1,4,3,6.61,3.17a2.49,2.49,0,0,0,.33,2.15,9.52,9.52,0,0,1,.26-1.86.64.64,0,0,1,1-.29A12.8,12.8,0,0,0,42.52,11.65Z"></path><g class="cls-4"><path class="cls-6" d="M42.52,11.65c-.47-2.56-2.55-4.4-6-4.38a6,6,0,0,0-5.83,3.6A6.16,6.16,0,0,1,36.2,8c3.4,0,5.48,1.82,5.95,4.37a15.58,15.58,0,0,1,.25,3,.81.81,0,0,1,.29.12A12,12,0,0,0,42.52,11.65Z"></path></g><g class="cls-12"><path class="cls-10" d="M34.5,11.16a8.61,8.61,0,0,1-4.25,3.43v-.16c0,.51,0,1,0,1.37.57-.47.82-.53,1.08-.43.19,2.09.64,2.05.64,2.05s0-1.42.14-2.36,1.62-1.1,2.39-2.72c2.42-.1,3.93,3,6.57,3.15C39.13,14.84,36.92,11.05,34.5,11.16Z"></path></g></g><circle class="cls-3" cx="15.79" cy="44.25" r="5.11" fill="#FFD44D"></circle><circle class="cls-3" cx="57.43" cy="44.25" r="5.11" fill="#FFD44D"></circle><path class="cls-3" d="M79.75,6.44a9.08,9.08,0,0,0-.91,0,9.08,9.08,0,0,0-.91,0,12.38,12.38,0,0,0,0,24.76,9.08,9.08,0,0,0,.91-.05,9.08,9.08,0,0,0,.91.05,12.38,12.38,0,0,0,0-24.76Z" fill="#FFD44D"></path><path class="cls-13" d="M67.39,18.84A12.38,12.38,0,0,1,78.86,6.5c-.3,0-.6,0-.9,0a12.38,12.38,0,1,0,0,24.76c.3,0,.6,0,.9,0A12.37,12.37,0,0,1,67.39,18.84Z"></path><path class="cls-13" d="M83,23.48a4.32,4.32,0,0,1-2.65,1v1.73h-1V24.45A7.81,7.81,0,0,1,77.21,24a4.51,4.51,0,0,1-1.61-.91l.57-1.19a4.44,4.44,0,0,0,1.4.83,5.92,5.92,0,0,0,1.76.4V19.6A12.83,12.83,0,0,1,77.54,19a3.21,3.21,0,0,1-1.19-.9,2.47,2.47,0,0,1-.48-1.57,2.67,2.67,0,0,1,.88-2,4.17,4.17,0,0,1,2.6-1V11.78h1v1.73a6,6,0,0,1,1.69.28,4.88,4.88,0,0,1,1.43.66l-.51,1.24a5.4,5.4,0,0,0-2.61-.86V18.4a13.14,13.14,0,0,1,1.84.59,3.16,3.16,0,0,1,1.22.88,2.36,2.36,0,0,1,.5,1.58A2.66,2.66,0,0,1,83,23.48Zm-5.09-6a4.27,4.27,0,0,0,1.46.61V14.81a2.56,2.56,0,0,0-1.47.59,1.38,1.38,0,0,0-.49,1.09A1.18,1.18,0,0,0,77.89,17.52Zm4,5.1a1.35,1.35,0,0,0,.51-1.1,1.19,1.19,0,0,0-.53-1,5.2,5.2,0,0,0-1.52-.63v3.3a2.69,2.69,0,0,0,1.54-.53Z"></path></g></svg>