<svg transform="scale(1)" xmlns="http://www.w3.org/2000/svg" viewBox="0 0 100 100" id="SGy14gubjN" class="pbimage_pbimage__wrapper__image__0LEis false"><title>Profit</title><defs><style> .cls-1{fill:#0099f5;} .cls-2, .cls-4, .cls-5{fill:#f0457d;} .cls-3{fill:#ffd44d;} .cls-4{opacity:0.15;} .cls-5{opacity:0.25;}
 .cls-2, .cls-4, .cls-5{fill:#F0457D;}
 .cls-3{fill:#FFD44D;}
 .cls-1{fill:#0099F5;}</style></defs><g id="_0227_Profit" data-name="0227_Profit"><path class="cls-1" d="M75.77,24.69a.94.94,0,0,1-.94-.94h0V14.57a.94.94,0,0,1,1.88,0v9.18A.94.94,0,0,1,75.77,24.69Z" fill="#0099F5"></path><path class="cls-1" d="M79.42,17.7a1,1,0,0,1-.7-.31L75.66,14l-3,3.4a1,1,0,0,1-1.32.14.94.94,0,0,1-.15-1.32l.07-.08L75,12a.94.94,0,0,1,1.32-.07l.07.07,3.76,4.17a1,1,0,0,1-.07,1.33,1,1,0,0,1-.63.24Z" fill="#0099F5"></path><path class="cls-2" d="M41.8,42.69a.94.94,0,0,1-.94-.94V32.57a.94.94,0,0,1,1.88,0v9.18a.94.94,0,0,1-.93.94Z"></path><path class="cls-2" d="M45.45,35.7a1,1,0,0,1-.7-.31L41.7,32l-3.06,3.39a.94.94,0,1,1-1.46-1.17.27.27,0,0,1,.07-.08L41,30a.94.94,0,0,1,1.33-.07l.07.07,3.75,4.17a.94.94,0,0,1-.07,1.33,1,1,0,0,1-.63.24Z"></path><path class="cls-3" d="M57.86,59.85v-8a.64.64,0,0,0-.61-.63H23.17l0,0a.58.58,0,0,0-.18,0l-.07,0-.13.08a.61.61,0,0,1-.07.1.33.33,0,0,0-.06.1.48.48,0,0,0-.06.24v8a.65.65,0,0,0,.62.63h-.06l-.16,0-.09.06a.28.28,0,0,0-.11.08.25.25,0,0,0-.08.1s-.05,0-.06.09a.46.46,0,0,0-.06.23v8a.64.64,0,0,0,.66.63.65.65,0,0,0-.66.63v8a.64.64,0,0,0,.61.62h0A.61.61,0,0,0,23,79l-.07,0-.13.1a.7.7,0,0,0-.06.09.23.23,0,0,0-.07.1.46.46,0,0,0-.06.23v8a.64.64,0,0,0,.66.63h34a.64.64,0,0,0,.66-.63v-8a.63.63,0,0,0-.61-.62.64.64,0,0,0,.61-.62v-8a.64.64,0,0,0-.66-.63.64.64,0,0,0,.66-.63v-8a.63.63,0,0,0-.61-.62A.64.64,0,0,0,57.86,59.85Z" fill="#FFD44D"></path><path class="cls-4" d="M57.86,59.84v-8a.64.64,0,0,0-.61-.63H53.33a.62.62,0,0,1,.57.62V58a.63.63,0,0,1-.65.63h-30a.63.63,0,0,1-.66-.63v1.8a.64.64,0,0,0,.61.63l-.06,0,.12,0h30a.64.64,0,0,1,.65.63v6.17a.64.64,0,0,1-.65.63h-30a.64.64,0,0,1-.66-.63v1.8a.64.64,0,0,0,.66.63.65.65,0,0,0-.66.63.66.66,0,0,1,.67-.63h30a.64.64,0,0,1,.65.63v6.17a.64.64,0,0,1-.65.63h-30a.64.64,0,0,1-.66-.63v1.8a.63.63,0,0,0,.61.62h-.05l.11,0h30a.64.64,0,0,1,.65.63V85.7a.64.64,0,0,1-.65.63h-30a.64.64,0,0,1-.66-.63v1.8a.64.64,0,0,0,.66.63h34a.64.64,0,0,0,.66-.63v-8a.63.63,0,0,0-.61-.62.63.63,0,0,0,.61-.62v-8a.64.64,0,0,0-.66-.63.64.64,0,0,0,.66-.63v-8a.63.63,0,0,0-.61-.62A.64.64,0,0,0,57.86,59.84Z"></path><path class="cls-4" d="M23.18,51.25l-.23.07,30.38-.06H23.18Z"></path><path class="cls-3" d="M58.1,42.19h34a.64.64,0,0,1,.66.63v8a.64.64,0,0,1-.61.62.63.63,0,0,1,.61.62v8a.63.63,0,0,1-.61.62.64.64,0,0,1,.61.62v8a.64.64,0,0,1-.66.63.64.64,0,0,1,.66.63v8a.63.63,0,0,1-.61.62.64.64,0,0,1,.61.63v8a.63.63,0,0,1-.66.63h-34a.63.63,0,0,1-.65-.63v-8a.64.64,0,0,1,0-.24l.07-.1.07-.09a.54.54,0,0,1,.12-.09l.07,0,.18,0,.05,0a.62.62,0,0,1-.61-.62v-8a.65.65,0,0,1,.65-.63.64.64,0,0,1-.65-.63v-8a.59.59,0,0,1,0-.23.47.47,0,0,1,.06-.09l.08-.1.11-.08.09-.05a.43.43,0,0,1,.16,0l.06,0a.63.63,0,0,1-.61-.62V52a.46.46,0,0,1,.12-.34l.07-.09a.54.54,0,0,1,.12-.09l.07,0a.61.61,0,0,1,.18,0h.05a.63.63,0,0,1-.61-.62v-8A.65.65,0,0,1,58.1,42.19Z" fill="#FFD44D"></path><path class="cls-3" d="M58.1,33h34a.63.63,0,0,1,.66.63v8a.64.64,0,0,1-.66.63h-34a.64.64,0,0,1-.65-.63v-8A.66.66,0,0,1,58.1,33Z" fill="#FFD44D"></path><path class="cls-4" d="M58.11,49.61h30a.64.64,0,0,0,.65-.63V42.81a.64.64,0,0,0-.65-.63h4a.64.64,0,0,1,.65.63v8a.63.63,0,0,1-.61.62.63.63,0,0,1,.61.62v8a.62.62,0,0,1-.61.62.63.63,0,0,1,.61.62v8a.63.63,0,0,1-.65.63.64.64,0,0,1,.65.64v8a.64.64,0,0,1-.61.63.62.62,0,0,1,.61.62v8a.64.64,0,0,1-.65.63h-34a.64.64,0,0,1-.66-.63V85.84a.64.64,0,0,0,.66.64h30a.64.64,0,0,0,.65-.64V79.68a.63.63,0,0,0-.65-.63h-30l-.12,0h.05a.64.64,0,0,1-.61-.63v-1.8a.64.64,0,0,0,.66.63h30a.64.64,0,0,0,.65-.63V70.47a.64.64,0,0,0-.65-.64h-30a.66.66,0,0,0-.68.64.66.66,0,0,1,.66-.64.63.63,0,0,1-.66-.63V67.4a.64.64,0,0,0,.66.63h30a.64.64,0,0,0,.65-.63V61.23a.64.64,0,0,0-.65-.63h-30l-.13,0,.06,0a.63.63,0,0,1-.61-.62v-1.8a.64.64,0,0,0,.66.63h30a.64.64,0,0,0,.65-.63V52a.64.64,0,0,0-.65-.63h-30l-.12,0h.05a.63.63,0,0,1-.61-.62V49A.64.64,0,0,0,58.11,49.61Z"></path><path class="cls-4" d="M58.11,40.38h30a.64.64,0,0,0,.65-.63V33.58a.64.64,0,0,0-.65-.63h4a.64.64,0,0,1,.65.63v8a.64.64,0,0,1-.65.63h-34a.64.64,0,0,1-.66-.63v-1.8A.64.64,0,0,0,58.11,40.38Z"></path><path class="cls-5" d="M33.52,55.76l-4.6-1.11L26.66,88.28H38.75c7.06-3.94,9.19-9.4,9.15-14.59A18.67,18.67,0,0,0,33.52,55.76Z"></path><path class="cls-3" d="M24.48,54.65c.42,0,.82,0,1.23.06s.82-.06,1.24-.06a16.82,16.82,0,0,1,0,33.63c-.42,0-.83,0-1.24-.06s-.81.06-1.23.06a16.82,16.82,0,0,1,0-33.63Z" fill="#FFD44D"></path><path class="cls-4" d="M41.26,71.49A16.8,16.8,0,0,0,25.68,54.74c.41,0,.82-.07,1.23-.07a16.82,16.82,0,1,1,0,33.63c-.41,0-.82,0-1.23-.06A16.8,16.8,0,0,0,41.26,71.49Z"></path><path class="cls-3" d="M28.87,77.79a5.87,5.87,0,0,1-3.6,1.34v2.35H23.93V79.11a11.19,11.19,0,0,1-2.9-.56,6.17,6.17,0,0,1-2.18-1.25l.77-1.62a6,6,0,0,0,1.9,1.13,8.3,8.3,0,0,0,2.39.55V72.52a16.19,16.19,0,0,1-2.42-.77,4.19,4.19,0,0,1-1.62-1.23,3.28,3.28,0,0,1-.66-2.12,3.66,3.66,0,0,1,1.2-2.79,5.63,5.63,0,0,1,3.52-1.34V61.9h1.34v2.35a8.45,8.45,0,0,1,2.3.38,6.7,6.7,0,0,1,1.94.9l-.7,1.68A7.41,7.41,0,0,0,25.27,66V70.9a16.87,16.87,0,0,1,2.5.79,4.32,4.32,0,0,1,1.66,1.21A3.21,3.21,0,0,1,30.11,75,3.57,3.57,0,0,1,28.87,77.79ZM22,69.7a6,6,0,0,0,2,.82V66a3.55,3.55,0,0,0-2,.79,1.89,1.89,0,0,0-.66,1.49A1.57,1.57,0,0,0,22,69.7Zm5.4,6.92a1.81,1.81,0,0,0,.7-1.48,1.64,1.64,0,0,0-.72-1.42,7.68,7.68,0,0,0-2.07-.86v4.48a3.61,3.61,0,0,0,2.09-.72Z" fill="#FFD44D"></path></g></svg>