<svg transform="scale(1)" xmlns="http://www.w3.org/2000/svg" viewBox="0 0 100 100" id="SeTm39SSVp" class="pbimage_pbimage__wrapper__image__0LEis false"><title>Target</title><defs><style> .cls-1{fill:#f0457d;} .cls-2{fill:#f2f2f2;} .cls-3{fill:#0099f5;} .cls-4{opacity:0.09;isolation:isolate;} .cls-5{fill:#13183f;} .cls-6{fill:#ffd44d;} .cls-7{opacity:0.15;}
 .cls-6{fill:#FFD44D;}
 .cls-5{fill:#13183F;}
 .cls-3{fill:#0099F5;}
 .cls-2{fill:#F2F2F2;}
 .cls-1{fill:#F0457D;}</style></defs><g id="_0224_Target" data-name="0224_Target"><circle class="cls-1" cx="25.23" cy="69.69" r="20.6" fill="#F0457D"></circle><circle class="cls-2" cx="25.23" cy="69.69" r="12.93" fill="#F2F2F2"></circle><circle class="cls-1" cx="25.23" cy="69.69" r="4.92" fill="#F0457D"></circle><path class="cls-3" d="M35.16,61.44,40.6,56c-.45-.5-.92-1-1.42-1.44L33.76,60A12.8,12.8,0,0,1,35.16,61.44Z" fill="#0099F5"></path><path class="cls-3" d="M24.49,70.68a1,1,0,0,0,1.43,0h0l3.51-3.51a4.87,4.87,0,0,0-1.38-1.48l-3.56,3.57a1,1,0,0,0,0,1.42Z" fill="#0099F5"></path><g class="cls-4"><path class="cls-5" d="M45.7,67.66a20.51,20.51,0,0,0-5.86-12.58l-14,15.47Z"></path></g><path class="cls-6" d="M43.84,56l-3.61-1a.22.22,0,0,1-.14-.14l-1-3.61a.23.23,0,0,0-.27-.13l-.07,0-5.25,5.27a.22.22,0,0,0-.05.19l.77,2.82-9.72,9.82a1,1,0,0,0,0,1.43h0a1,1,0,0,0,1.43,0l9.71-9.82,2.82.77a.22.22,0,0,0,.19,0l5.26-5.26a.22.22,0,0,0,0-.3Z" fill="#FFD44D"></path><g class="cls-7"><path class="cls-1" d="M43.84,56l-3.61-1a.2.2,0,0,1-.14-.14L24.46,70.61l.05,0h0a1,1,0,0,0,1.43,0l9.72-9.82,2.82.76a.19.19,0,0,0,.19-.05l5.26-5.26a.2.2,0,0,0,0-.29Z"></path></g><path class="cls-2" d="M32.57,37.1H11.91a.27.27,0,0,1-.26-.26V9.51a.26.26,0,0,1,.26-.25H38.56a.26.26,0,0,1,.26.25h0V30.27Z" fill="#F2F2F2"></path><path class="cls-2" d="M25.23,37.1V9.26H38.56a.26.26,0,0,1,.26.26h0V30.3l-6,6.8Z" fill="#F2F2F2"></path><g class="cls-7"><path class="cls-5" d="M32.8,37.1l6-6.8H33.06a.26.26,0,0,0-.26.26Z"></path></g><g class="cls-7"><path class="cls-5" d="M31.81,18.46H18.66a.63.63,0,1,1,0-1.25H31.81a.63.63,0,0,1,0,1.25Z"></path></g><g class="cls-7"><path class="cls-5" d="M26.35,24.46H18.66a.63.63,0,1,1,0-1.25h7.69a.63.63,0,0,1,0,1.25Z"></path></g><rect class="cls-3" x="49.56" y="9.26" width="45.81" height="81.48" rx="0.63" fill="#0099F5"></rect><g class="cls-7"><path class="cls-5" d="M94.94,9.26h-3V85.68c0,.32-.19.57-.41.57H49.56v3.92c0,.32.19.57.41.57h45c.23,0,.42-.25.42-.57V9.83C95.36,9.52,95.17,9.26,94.94,9.26Z"></path></g><path class="cls-2" d="M64.44,25.05H59.75a1.26,1.26,0,0,1-1.26-1.25h0V19.11a1.26,1.26,0,0,1,1.26-1.25h4.69a1.25,1.25,0,0,1,1.25,1.25V23.8a1.25,1.25,0,0,1-1.25,1.25Zm-4.69-5.94V23.8h4.69V19.11Z" fill="#F2F2F2"></path><path class="cls-2" d="M85.8,19.83H68.24a.63.63,0,1,1,0-1.26H85.8a.63.63,0,0,1,0,1.26Z" fill="#F2F2F2"></path><path class="cls-2" d="M78.51,23.1H68.24a.63.63,0,1,1,0-1.25H78.51a.63.63,0,0,1,0,1.25Z" fill="#F2F2F2"></path><path class="cls-2" d="M64.44,36.48H59.75a1.26,1.26,0,0,1-1.26-1.25V30.54a1.26,1.26,0,0,1,1.26-1.25h4.69a1.25,1.25,0,0,1,1.25,1.25v4.69a1.25,1.25,0,0,1-1.25,1.25Zm-4.69-5.94v4.69h4.69V30.54Z" fill="#F2F2F2"></path><path class="cls-2" d="M85.8,31.26H68.24a.63.63,0,1,1,0-1.25H85.8a.63.63,0,0,1,0,1.25Z" fill="#F2F2F2"></path><path class="cls-2" d="M78.51,34.53H68.24a.63.63,0,1,1,0-1.25H78.51a.63.63,0,0,1,0,1.25Z" fill="#F2F2F2"></path><path class="cls-5" d="M64.44,47.92H59.75a1.26,1.26,0,0,1-1.26-1.25V42a1.26,1.26,0,0,1,1.26-1.25h4.69A1.25,1.25,0,0,1,65.69,42v4.7a1.25,1.25,0,0,1-1.25,1.25Zm-4.69-6v4.7h4.69V42Z" fill="#13183F"></path><path class="cls-5" d="M85.8,42.7H68.24a.63.63,0,1,1,0-1.25H85.8a.63.63,0,0,1,0,1.25Z" fill="#13183F"></path><path class="cls-5" d="M78.51,46H68.24a.63.63,0,1,1,0-1.25H78.51a.63.63,0,0,1,0,1.25Z" fill="#13183F"></path><path class="cls-2" d="M64.44,59.05H59.75a1.26,1.26,0,0,1-1.26-1.25V53.1a1.26,1.26,0,0,1,1.26-1.25h4.69a1.25,1.25,0,0,1,1.25,1.25v4.7a1.25,1.25,0,0,1-1.25,1.25ZM59.75,53.1v4.7h4.69V53.1Z" fill="#F2F2F2"></path><path class="cls-2" d="M85.8,53.82H68.24a.63.63,0,1,1,0-1.25H85.8a.63.63,0,0,1,0,1.25Z" fill="#F2F2F2"></path><path class="cls-2" d="M78.51,57.1H68.24a.63.63,0,0,1,0-1.26H78.51a.63.63,0,0,1,0,1.26Z" fill="#F2F2F2"></path><path class="cls-2" d="M64.44,70.48H59.75a1.26,1.26,0,0,1-1.26-1.25V64.54a1.26,1.26,0,0,1,1.26-1.25h4.69a1.25,1.25,0,0,1,1.25,1.25v4.69a1.25,1.25,0,0,1-1.25,1.25Zm-4.69-5.94v4.69h4.69V64.54Z" fill="#F2F2F2"></path><path class="cls-2" d="M85.8,65.26H68.24a.63.63,0,1,1,0-1.25H85.8a.63.63,0,0,1,0,1.25Z" fill="#F2F2F2"></path><path class="cls-2" d="M78.51,68.53H68.24a.63.63,0,0,1-.63-.63.63.63,0,0,1,.63-.63H78.51a.63.63,0,0,1,.62.63A.63.63,0,0,1,78.51,68.53Z" fill="#F2F2F2"></path><path class="cls-2" d="M64.44,81.92H59.75a1.26,1.26,0,0,1-1.26-1.26V76a1.26,1.26,0,0,1,1.26-1.25h4.69A1.25,1.25,0,0,1,65.69,76v4.69a1.25,1.25,0,0,1-1.25,1.26Zm-4.69-6v4.69h4.69V76Z" fill="#F2F2F2"></path><path class="cls-2" d="M85.8,76.7H68.24a.63.63,0,1,1,0-1.25H85.8a.63.63,0,0,1,0,1.25Z" fill="#F2F2F2"></path><path class="cls-2" d="M78.51,80H68.24a.63.63,0,1,1,0-1.25H78.51a.63.63,0,0,1,0,1.25Z" fill="#F2F2F2"></path></g></svg>