<svg transform="scale(1)" xmlns="http://www.w3.org/2000/svg" viewBox="0 0 100 100" id="tWnCH7S8EJ" class="pbimage_pbimage__wrapper__image__0LEis false"><title>Ui Design</title><defs><style> .cls-1{fill:#0099f5;} .cls-2{fill:#f2f2f2;} .cls-3, .cls-5{fill:#13183f;} .cls-3{opacity:0.15;} .cls-4{fill:#f0457d;}
 .cls-3, .cls-5{fill:#13183F;}
 .cls-4{fill:#F0457D;}
 .cls-2{fill:#F2F2F2;}
 .cls-1{fill:#0099F5;}</style></defs><g id="_0083_Ui_Design" data-name="0083_Ui_Design"><rect class="cls-1" x="21.58" y="4.85" width="56.84" height="90.29" rx="6.9" fill="#0099F5"></rect><path class="cls-2" d="M31.67,8.8H65.41a6.82,6.82,0,0,0-2-.29H31.56a6.9,6.9,0,0,0-6.9,6.9V82.56a7.49,7.49,0,0,0,.1,1.17v-68A6.9,6.9,0,0,1,31.67,8.8Z" fill="#F2F2F2"></path><path class="cls-2" d="M68.46,8.8H31.67a6.9,6.9,0,0,0-6.91,6.9V84.76a6.91,6.91,0,0,0,6.91,6.91H68.46a6.9,6.9,0,0,0,6.9-6.91V15.7A6.9,6.9,0,0,0,68.46,8.8Z" fill="#F2F2F2"></path><path class="cls-3" d="M68.47,8.82h-3a6.92,6.92,0,0,1,4.92,6.61V82.58a6.91,6.91,0,0,1-6.91,6.91H31.57a6.9,6.9,0,0,1-6.79-5.73v1a6.9,6.9,0,0,0,6.9,6.9H68.47a6.91,6.91,0,0,0,6.91-6.9V15.73A6.91,6.91,0,0,0,68.47,8.82Z"></path><path class="cls-1" d="M35.35,7H64.43V8.7a5.77,5.77,0,0,1-5.77,5.77H41.12A5.77,5.77,0,0,1,35.35,8.7V7Z" fill="#0099F5"></path><path class="cls-4" d="M68.15,23.22H31.42a.65.65,0,0,0-.66.65V41.36a.65.65,0,0,0,.66.66H68.15a.65.65,0,0,0,.65-.66V23.87A.65.65,0,0,0,68.15,23.22Z" fill="#F0457D"></path><path class="cls-3" d="M68.16,23.2H63.79a.66.66,0,0,1,.66.65V39.16a.66.66,0,0,1-.66.65H31.43a.65.65,0,0,1-.65-.65v2.18a.65.65,0,0,0,.65.66H68.16a.65.65,0,0,0,.66-.66V23.85A.65.65,0,0,0,68.16,23.2Z"></path><path class="cls-5" d="M68.8,42.35a1,1,0,0,1-.41-.09l-38-17.49a1,1,0,0,1-.48-1.31,1,1,0,0,1,1.3-.48h0l38,17.49a1,1,0,0,1-.41,1.88Z"></path><path class="cls-5" d="M31.31,43.11a1,1,0,0,1-.44-1.86l37.39-18.8a1,1,0,0,1,.87,1.75L31.74,43A.92.92,0,0,1,31.31,43.11Z"></path><path class="cls-5" d="M68.8,57.21H31.42a1,1,0,1,1,0-2H68.8a1,1,0,1,1,0,2Z"></path><path class="cls-5" d="M68.69,66.07H31.31a1,1,0,1,1,0-2H68.69a1,1,0,1,1,0,2Z"></path><path class="cls-5" d="M46,74.81H31.53a1,1,0,1,1,0-2H46a1,1,0,1,1,0,2Z"></path></g></svg>